<?xml version="1.0" standalone="no"?>
<!DOCTYPE svg PUBLIC "-//W3C//DTD SVG 20010904//EN"
 "http://www.w3.org/TR/2001/REC-SVG-20010904/DTD/svg10.dtd">
<svg version="1.0" xmlns="http://www.w3.org/2000/svg"
 width="1000.000000pt" height="1000.000000pt" viewBox="0 0 1000.000000 1000.000000"
 preserveAspectRatio="xMidYMid meet">
<metadata>
Created by potrace 1.11, written by Peter Selinger 2001-2013
</metadata>
<g transform="translate(0.000000,1000.000000) scale(0.100000,-0.100000)"
fill="#000000" stroke="none">
<path d="M0 5000 l0 -5000 5000 0 5000 0 0 5000 0 5000 -5000 0 -5000 0 0
-5000z m4584 4921 c9 -14 -29 -42 -48 -35 -16 6 -21 25 -9 37 9 10 51 9 57 -2z
m5354 -475 c3 -12 -1 -17 -10 -14 -7 3 -15 13 -16 22 -3 12 1 17 10 14 7 -3
15 -13 16 -22z m45 -68 c13 -20 2 -48 -18 -48 -11 0 -15 10 -15 36 0 37 14 42
33 12z m-4275 -185 c-4 -37 -25 -40 -30 -3 -4 24 -1 30 14 30 15 0 19 -6 16
-27z m306 -122 c3 -5 -1 -12 -10 -15 -20 -8 -29 -1 -19 13 8 13 22 14 29 2z
m-638 -684 c18 -19 -13 -397 -35 -418 -9 -8 -54 -28 -101 -42 -47 -15 -112
-43 -145 -63 -188 -114 -277 -246 -277 -416 0 -61 5 -80 37 -145 113 -228 416
-358 717 -309 242 40 422 155 506 324 35 72 37 81 37 171 0 84 -4 104 -27 154
-15 32 -42 76 -59 98 -44 56 -146 126 -247 169 l-87 38 2 202 c1 129 6 206 13
215 7 8 25 12 48 9 583 -61 1098 -201 1604 -435 185 -86 240 -116 428 -233
188 -117 339 -225 465 -334 67 -58 205 -193 205 -201 0 -4 -46 -26 -102 -49
-57 -22 -170 -68 -251 -101 -82 -34 -155 -61 -162 -61 -7 0 -55 20 -107 45
-148 70 -197 80 -383 79 -153 0 -164 -2 -251 -32 -182 -62 -304 -160 -375
-299 -32 -64 -34 -72 -34 -172 0 -94 4 -114 30 -180 25 -62 40 -82 95 -131 86
-76 188 -132 302 -166 82 -25 109 -28 223 -28 152 0 247 21 364 79 111 54 160
94 231 189 67 88 100 214 82 308 -7 33 -6 50 2 56 6 4 61 29 121 54 278 118
405 168 423 168 12 0 34 -19 55 -47 19 -27 54 -72 77 -101 173 -224 335 -543
430 -847 143 -461 152 -999 25 -1461 -57 -208 -98 -318 -118 -322 -9 -2 -48
11 -85 29 -37 17 -92 43 -122 57 -30 13 -100 46 -155 72 -55 27 -124 58 -153
70 l-52 23 1 102 c1 87 -3 112 -24 164 -67 166 -221 303 -408 364 -71 24 -104
29 -273 42 -38 4 -72 7 -75 7 -3 1 -19 -4 -34 -10 -16 -7 -36 -12 -45 -12 -42
0 -205 -60 -264 -97 -21 -13 -44 -23 -53 -23 -8 0 -15 -4 -15 -9 0 -6 -24 -32
-52 -60 -130 -123 -178 -271 -148 -457 25 -156 251 -361 442 -403 66 -14 70
-35 8 -45 -31 -5 -41 -11 -46 -31 -4 -16 -13 -25 -26 -25 -10 0 -17 -3 -15 -7
3 -5 0 -19 -6 -33 -5 -14 -12 -34 -14 -45 -2 -10 -10 -29 -18 -42 -8 -12 -15
-31 -15 -42 0 -11 -5 -21 -11 -23 -6 -2 -12 -13 -13 -23 -4 -41 -20 -80 -37
-92 -10 -8 -15 -21 -12 -32 3 -10 0 -22 -6 -25 -6 -4 -11 -18 -11 -32 0 -13
-5 -24 -11 -24 -8 0 -8 -5 1 -15 7 -8 10 -21 7 -29 -3 -7 -1 -18 5 -24 8 -8 3
-20 -16 -43 -19 -22 -26 -40 -23 -56 2 -13 2 -21 -1 -18 -4 3 -11 -11 -17 -32
-6 -21 -16 -39 -23 -39 -7 -1 -16 -2 -22 -3 -15 -2 -12 -17 5 -35 21 -21 20
-22 -24 -21 -22 1 -37 -3 -35 -7 3 -4 18 -8 35 -8 16 0 29 -5 29 -11 0 -5 -4
-7 -10 -4 -5 3 -10 -3 -10 -14 0 -19 -13 -26 -45 -22 -6 0 -11 -10 -11 -24 0
-30 7 -32 24 -5 7 11 17 20 22 20 13 0 13 -37 0 -42 -6 -2 -11 -18 -13 -35 -1
-18 -8 -35 -14 -37 -7 -3 -10 -12 -7 -21 4 -9 -1 -21 -12 -29 -12 -9 -19 -28
-20 -57 -1 -24 -6 -45 -11 -46 -24 -9 -35 -23 -35 -47 0 -15 -4 -29 -9 -32 -5
-3 -9 -14 -9 -25 0 -10 -4 -19 -10 -19 -5 0 -10 6 -10 14 0 18 -42 29 -52 13
-5 -8 -11 -8 -15 -2 -5 6 -12 11 -18 12 -40 6 -51 9 -55 15 -3 4 -17 9 -32 12
-22 4 -25 1 -20 -16 4 -16 1 -19 -14 -14 -15 4 -24 -2 -39 -27 -10 -17 -18
-33 -17 -34 5 -7 1 -23 -5 -22 -23 4 -31 -3 -26 -21 3 -11 0 -20 -6 -20 -6 0
-11 5 -11 10 0 6 -9 10 -20 10 -13 0 -18 -5 -14 -15 6 -15 4 -15 -59 -19 -10
-1 -21 -7 -26 -14 -4 -7 -12 -12 -17 -11 -5 1 -24 1 -43 0 -33 -1 -33 -1 -17
-26 12 -18 13 -25 4 -25 -21 0 -41 -41 -45 -95 -5 -74 -7 -80 -24 -98 -13 -12
-19 -13 -29 -4 -9 9 -11 8 -10 -8 1 -11 1 -23 0 -27 -1 -5 -3 -16 -4 -25 -3
-35 -27 -65 -47 -60 -14 4 -19 0 -19 -14 0 -14 -7 -19 -28 -19 -17 0 -32 -8
-40 -21 -11 -17 -20 -20 -43 -15 -21 4 -31 1 -35 -9 -8 -19 -33 -19 -40 -1 -3
8 -11 14 -17 12 -7 -1 -9 -1 -4 1 4 3 7 12 7 21 0 15 -2 15 -10 2 -7 -12 -10
-12 -10 -1 0 8 -6 11 -16 7 -13 -5 -15 -2 -11 14 3 11 0 20 -5 20 -6 0 -4 8 3
17 8 9 9 14 2 10 -7 -5 -15 8 -21 40 -6 26 -9 50 -6 54 2 4 -3 12 -10 19 -12
9 -17 7 -25 -7 -5 -11 -6 -25 -1 -33 4 -7 6 -19 3 -25 -2 -7 3 -29 11 -49 9
-21 11 -36 5 -36 -6 0 -8 -4 -5 -8 3 -5 0 -9 -7 -9 -7 0 -25 -3 -40 -7 -19 -4
-27 -3 -27 6 0 9 -3 8 -10 -2 -8 -12 -10 -9 -10 13 0 15 -4 27 -10 27 -5 0
-10 6 -10 14 0 8 -5 18 -12 22 -8 5 -9 2 -5 -9 5 -12 1 -17 -13 -17 -10 0 -21
4 -24 8 -8 14 -67 1 -64 -14 3 -13 -7 -15 -29 -7 -7 3 -10 10 -7 15 4 7 0 7
-12 0 -23 -12 -61 -6 -91 14 -21 13 -24 13 -29 -1 -9 -22 -24 -8 -25 23 l0 27
-10 -24 -9 -24 -20 23 c-21 24 -28 56 -10 45 6 -3 7 1 4 9 -6 15 -18 20 -38
17 -4 -1 -6 13 -4 30 5 29 4 30 -9 13 -13 -18 -14 -18 -34 3 -22 21 -69 126
-69 153 0 8 -9 26 -20 40 -11 14 -20 32 -20 41 0 9 -3 19 -7 23 -5 4 -8 11 -8
14 -2 19 -17 52 -25 52 -4 0 -7 8 -6 18 0 10 -5 16 -14 14 -22 -5 -4 9 75 58
213 131 460 368 598 573 121 180 197 357 233 540 9 48 21 87 25 87 4 0 6 105
5 233 -3 238 -10 296 -56 437 -76 238 -352 597 -590 767 -352 253 -655 370
-1090 423 -102 13 -132 17 -141 19 -14 3 -69 59 -70 72 0 9 -2 10 -5 2 -7 -16
15 -55 27 -48 5 4 9 2 9 -3 0 -16 -56 -22 -194 -22 -92 0 -136 4 -144 12 -10
10 -15 10 -22 -1 -6 -10 -64 -21 -190 -37 -285 -36 -625 -141 -840 -258 -36
-20 -71 -36 -77 -36 -7 0 -51 -27 -97 -60 -47 -33 -87 -60 -91 -60 -6 0 -176
-143 -227 -190 -197 -185 -310 -338 -426 -580 -96 -198 -135 -385 -135 -635 0
-160 16 -258 70 -430 46 -145 163 -354 267 -474 21 -26 62 -73 90 -106 28 -33
64 -73 80 -90 42 -43 66 -86 66 -118 0 -45 -55 -142 -118 -209 -33 -35 -73
-79 -90 -98 -50 -56 -86 -90 -96 -90 -17 0 -86 44 -86 55 0 6 5 16 11 22 19
19 3 44 -26 39 -14 -3 -23 -1 -20 4 3 5 0 12 -6 16 -7 4 -9 3 -5 -4 3 -6 1
-14 -5 -17 -5 -4 -8 -14 -5 -22 5 -11 -1 -10 -27 4 -39 22 -111 75 -115 85 -2
5 -9 8 -14 8 -6 0 -18 7 -27 15 -9 8 -43 37 -77 64 -33 27 -89 75 -123 107
-50 46 -59 59 -47 66 19 10 17 58 -1 58 -17 0 -17 27 0 34 6 3 0 3 -15 1 -16
-2 -28 1 -28 6 0 6 -5 7 -12 3 -8 -5 -6 -11 5 -19 40 -29 -4 -29 -46 -1 -20
13 -27 25 -23 39 4 16 0 18 -20 14 -18 -3 -24 0 -24 14 0 11 -7 19 -15 19 -8
0 -15 7 -15 16 0 8 -4 13 -8 10 -8 -5 -118 110 -151 157 -8 12 -24 31 -34 42
-11 11 -36 45 -56 75 -20 31 -42 62 -49 70 -65 73 -241 405 -312 590 -174 452
-219 883 -143 1375 42 275 125 531 263 805 65 132 206 369 253 427 13 15 30
40 39 54 9 14 34 47 55 71 21 25 63 77 93 116 58 75 307 327 351 355 24 16 29
16 80 -2 66 -23 419 -197 438 -215 11 -11 11 -28 4 -83 -29 -198 45 -358 217
-474 73 -49 98 -60 198 -84 104 -25 125 -27 240 -22 190 8 330 55 464 155 70
52 99 85 143 157 47 79 66 147 66 242 1 88 -15 142 -61 209 -16 25 -30 49 -30
54 0 11 -63 60 -77 60 -6 0 -15 6 -21 13 -6 6 -41 27 -79 46 -77 39 -105 60
-97 72 3 5 0 9 -5 9 -6 0 -11 -5 -11 -11 0 -12 -28 -10 -140 11 -61 11 -278
-3 -310 -20 -10 -5 -28 -10 -39 -10 -12 0 -29 -4 -39 -9 -92 -45 -181 -81
-200 -81 -10 0 -34 9 -55 20 -20 11 -41 20 -47 20 -5 0 -42 15 -82 33 -40 19
-122 56 -181 83 l-109 49 29 25 c122 105 481 325 722 441 735 354 1573 536
2391 521 99 -2 148 -6 156 -15z m-3356 -312 c-7 -8 -17 -15 -22 -15 -6 0 -5 7
2 15 7 8 17 15 22 15 6 0 5 -7 -2 -15z m-580 -225 c0 -5 -2 -10 -4 -10 -3 0
-8 5 -11 10 -3 6 -1 10 4 10 6 0 11 -4 11 -10z m700 -3530 c0 -5 -4 -10 -10
-10 -5 0 -10 5 -10 10 0 6 5 10 10 10 6 0 10 -4 10 -10z m6378 -225 c66 -32
111 -59 107 -65 -4 -6 -11 -8 -16 -4 -13 8 -35 -50 -44 -114 -4 -28 -12 -55
-18 -60 -7 -4 -19 -20 -27 -37 -8 -16 -25 -39 -37 -50 -22 -19 -25 -34 -39
-154 -3 -25 -10 -51 -16 -58 -6 -7 -8 -13 -5 -13 4 0 -4 -21 -18 -47 -13 -26
-21 -51 -18 -56 2 -4 2 -16 -2 -25 -4 -9 -9 -30 -10 -47 -2 -16 -4 -34 -5 -40
-6 -25 1 -125 8 -125 4 0 9 21 10 46 1 25 5 51 9 57 4 7 7 21 8 32 0 11 6 19
12 18 7 -2 16 9 19 23 4 16 11 23 21 20 11 -4 13 -1 8 15 -5 16 -3 20 12 17
12 -2 18 3 18 17 0 11 -6 20 -14 20 -8 0 -16 6 -18 13 -3 6 0 12 6 12 7 0 7 8
1 24 -7 20 -6 26 9 31 12 4 17 12 14 24 -4 15 0 18 21 14 32 -7 33 0 2 30 -17
17 -23 32 -19 46 5 21 13 25 47 21 11 -1 15 3 12 9 -4 6 -16 11 -27 11 -24 0
-24 10 -1 49 11 20 23 29 33 26 13 -4 18 5 25 47 5 29 9 63 9 75 1 12 4 25 8
29 4 4 7 24 7 44 0 74 13 73 206 -24 96 -48 176 -92 179 -97 7 -10 -29 -82
-61 -125 -13 -17 -24 -34 -24 -39 0 -4 -16 -30 -35 -56 -19 -27 -35 -51 -35
-54 0 -2 -11 -15 -25 -29 -14 -14 -25 -32 -25 -41 0 -8 -4 -15 -10 -15 -5 0
-10 -6 -10 -13 0 -41 -346 -427 -369 -412 -7 3 -11 -3 -11 -16 0 -14 -26 -46
-71 -90 -70 -67 -91 -79 -104 -59 -3 6 -11 10 -17 10 -7 0 -7 -5 1 -14 6 -7 9
-20 5 -29 -7 -19 -99 -99 -174 -153 -30 -21 -62 -45 -70 -52 -61 -52 -274
-197 -360 -245 -62 -34 -127 -51 -133 -33 -2 6 -8 8 -12 4 -4 -3 -2 -15 3 -25
8 -14 5 -21 -16 -36 -41 -28 -182 -98 -182 -91 0 4 -8 1 -17 -7 -10 -8 -29
-20 -43 -26 -14 -6 -60 -27 -103 -47 -43 -20 -87 -36 -98 -36 -10 0 -19 -4
-19 -9 0 -5 -8 -11 -17 -14 -31 -9 -117 -43 -153 -60 -52 -24 -367 -127 -389
-127 -11 0 -22 -4 -25 -8 -2 -4 -19 -9 -38 -10 -18 -2 -37 -7 -42 -12 -6 -6
-21 -10 -34 -10 -13 0 -31 -4 -40 -9 -39 -19 -89 -20 -110 -1 -11 10 -22 16
-25 14 -3 -3 -8 3 -11 13 -6 18 -59 56 -67 48 -3 -2 -5 4 -5 14 0 19 28 18 54
-2 8 -6 12 -6 12 1 0 6 -9 13 -19 17 -11 3 -19 14 -18 25 1 22 36 35 43 16 6
-17 34 -16 34 1 0 7 -4 13 -8 13 -5 0 -9 6 -9 14 0 21 49 13 57 -9 5 -16 7
-16 19 -1 8 9 11 19 8 23 -10 9 12 43 29 43 11 0 13 -6 9 -21 -6 -18 -4 -20
11 -11 15 8 23 5 41 -16 22 -26 22 -26 16 -3 -4 16 -3 22 5 17 6 -3 15 2 21
11 10 17 11 17 42 0 26 -14 30 -15 25 -2 -20 50 -20 50 -5 38 11 -9 23 -7 53
8 22 11 43 25 48 32 6 9 8 9 8 0 0 -7 8 -13 18 -12 10 0 12 3 5 6 -19 7 -15
24 5 21 13 -2 16 3 14 20 -2 12 2 22 7 22 6 0 11 -7 11 -16 0 -8 5 -12 10 -9
8 5 7 12 -1 22 -10 11 -10 16 0 23 8 5 11 16 6 30 -6 19 -4 21 13 16 23 -8 39
11 24 26 -14 14 6 70 21 61 7 -4 7 0 -1 9 -9 11 -10 18 -2 23 6 3 8 10 5 15
-3 4 2 10 10 14 8 3 15 1 15 -4 0 -6 5 -10 11 -10 5 0 8 4 5 9 -3 5 1 14 9 21
8 7 15 19 15 26 0 8 1 14 3 15 1 0 21 2 45 5 38 5 42 4 42 -15 0 -12 5 -21 12
-21 6 0 8 3 5 7 -4 3 -1 13 5 21 7 8 13 22 13 31 0 9 6 17 13 17 6 1 19 2 27
3 8 0 14 4 13 9 -4 13 13 52 23 52 5 0 9 9 9 19 0 27 15 34 33 16 13 -13 15
-12 20 6 4 17 9 19 24 10 24 -12 49 1 37 20 -8 14 15 -1 45 -29 11 -11 17 -10
32 4 11 10 19 12 19 6 0 -14 22 -12 32 3 5 6 8 5 8 -2 0 -23 15 -14 29 18 10
23 10 34 2 42 -6 6 -11 17 -11 24 0 11 5 11 20 3 17 -9 20 -8 20 14 0 15 11
33 26 45 22 17 24 23 14 36 -10 12 -9 16 4 21 11 4 16 18 16 44 0 22 5 42 10
45 6 3 10 13 10 22 0 9 7 24 16 34 9 10 17 38 18 63 2 51 12 68 27 46 9 -13
10 -13 6 1 -3 9 -1 22 3 29 5 8 4 22 -1 31 -11 21 6 73 21 64 5 -3 10 3 10 14
0 12 5 21 11 21 6 0 9 10 7 23 -4 20 -1 23 26 20 17 -2 38 -4 46 -5 8 -1 22
-11 31 -22 15 -18 21 -20 47 -10 28 11 30 10 30 -12 0 -13 -4 -24 -8 -24 -4 0
-10 -9 -13 -21 -3 -13 -10 -18 -17 -14 -8 5 -11 -1 -10 -16 4 -40 1 -49 -15
-49 -8 0 -15 -9 -15 -19 0 -11 -4 -21 -10 -23 -5 -1 -12 -24 -14 -50 -3 -26
-8 -53 -12 -59 -14 -23 -14 -69 0 -69 11 0 12 -8 5 -40 -5 -22 -8 -43 -7 -47
1 -5 -2 -21 -7 -36 -4 -17 -3 -38 3 -52 9 -19 8 -28 -5 -40 -14 -15 -14 -17 3
-31 11 -9 14 -13 7 -10 -6 4 -14 2 -18 -4 -3 -5 1 -10 9 -10 9 0 19 0 22 0 3
0 7 49 8 110 1 77 5 110 13 110 14 0 5 73 -10 79 -5 2 -5 6 2 10 5 4 11 21 13
38 1 22 8 33 21 37 13 3 17 10 14 20 -4 9 2 24 12 33 19 19 36 67 20 57 -5 -3
-9 -1 -9 4 0 5 18 14 40 21 22 6 40 17 40 23 0 6 11 3 26 -7 19 -12 29 -14 37
-6 6 6 15 11 21 11 5 0 6 -3 3 -6 -3 -4 5 -15 18 -26 28 -22 73 -16 71 10 -1
10 8 18 21 20 31 5 27 57 -4 56 -12 0 -24 7 -26 17 -3 12 0 15 15 11 10 -2 18
-1 17 4 -3 20 2 35 10 30 15 -9 41 41 41 79 0 19 5 35 11 35 6 0 9 9 6 20 -3
11 -2 20 2 20 5 0 7 18 6 40 -1 22 2 40 7 40 5 0 8 18 6 40 -1 22 -5 40 -9 40
-9 0 -21 -49 -14 -60 3 -5 1 -11 -4 -14 -5 -3 -12 -28 -16 -56 -4 -27 -15 -61
-26 -74 -10 -13 -19 -29 -19 -35 0 -19 -59 -71 -81 -71 -17 0 -20 4 -15 24 8
32 -16 41 -60 20 -29 -14 -37 -14 -51 -3 -15 12 -16 12 -11 -8 7 -25 -20 -42
-33 -21 -5 9 -13 5 -27 -12 -13 -16 -24 -21 -37 -16 -17 6 -17 7 1 27 26 29
53 42 98 48 43 7 58 26 28 35 -24 8 -65 -9 -113 -46 -20 -15 -47 -28 -60 -28
-23 0 -23 0 5 29 15 16 24 31 19 34 -15 9 -58 11 -71 3 -26 -16 -26 5 0 29 24
22 29 23 55 10 41 -20 65 -22 71 -6 2 8 0 11 -6 7 -5 -3 -28 12 -51 34 -23 22
-50 40 -61 40 -27 0 -26 19 2 29 14 5 17 10 10 15 -16 10 -15 26 1 26 8 0 19
-12 26 -27 8 -18 15 -23 22 -16 8 8 6 18 -5 36 -22 33 -30 73 -12 58 7 -6 16
-8 19 -4 4 3 -1 12 -11 19 -11 9 -13 13 -4 14 7 0 11 4 8 9 -3 5 1 14 9 21 8
7 15 19 15 26 0 8 3 14 8 14 23 1 34 18 23 39 -9 16 -9 21 1 21 14 0 39 46 30
55 -3 3 -8 17 -9 31 -3 20 0 25 14 22 10 -2 17 -10 15 -16 -3 -15 24 -16 33
-2 3 6 -1 10 -9 10 -18 0 -21 23 -5 51 8 15 14 18 24 9 10 -8 14 -5 19 13 5
20 10 23 33 19 23 -4 26 -3 16 9 -10 12 5 14 101 11 125 -4 240 13 348 52 l67
25 -6 -30 c-3 -17 -1 -29 5 -29 5 0 8 9 5 19 -3 13 4 27 22 43 29 26 117 87
125 88 3 0 56 -25 118 -55z m-1043 -634 c3 -5 -5 -17 -17 -25 -24 -17 -35 -8
-24 19 6 17 32 20 41 6z m10 -111 c-27 -12 -43 -12 -25 0 8 5 22 9 30 9 10 0
8 -3 -5 -9z m229 -69 c9 -14 -62 -54 -82 -46 -15 6 -13 10 11 31 29 24 61 31
71 15z m76 -61 c0 -5 -7 -10 -16 -10 -8 0 -12 5 -9 10 3 6 10 10 16 10 5 0 9
-4 9 -10z m-50 -20 c0 -5 -5 -10 -11 -10 -5 0 -7 5 -4 10 3 6 8 10 11 10 2 0
4 -4 4 -10z m59 -39 c-3 -6 -10 -7 -18 -2 -7 5 -10 14 -6 21 9 14 29 -2 24
-19z m-2391 -430 c-2 -5 6 -17 17 -27 11 -11 31 -52 44 -93 13 -41 30 -82 39
-90 9 -9 10 -17 4 -19 -5 -1 5 -26 23 -53 20 -31 31 -58 28 -70 -3 -10 0 -19
6 -19 6 0 11 -7 11 -15 0 -8 7 -15 15 -15 8 0 15 -8 14 -17 0 -11 -3 -13 -6
-5 -11 27 -21 10 -11 -19 6 -16 13 -28 15 -25 3 3 14 -5 25 -17 11 -12 16 -16
12 -8 -5 9 -3 12 4 7 7 -4 12 -18 12 -31 0 -18 4 -22 19 -18 10 2 25 -3 34
-11 8 -9 23 -16 31 -16 9 0 16 -7 16 -15 0 -8 4 -15 8 -15 11 0 32 -46 25 -54
-3 -3 -17 -3 -30 0 -19 5 -22 3 -17 -12 5 -15 1 -14 -18 6 -16 16 -21 28 -15
32 6 4 15 4 19 2 4 -3 8 0 8 5 0 10 -14 15 -32 12 -5 0 -8 4 -8 10 0 6 -9 8
-20 4 -12 -4 -20 -2 -20 6 0 9 -4 8 -15 -1 -16 -13 -22 -5 -25 33 -4 67 -4 66
-30 60 -34 -8 -41 -13 -34 -24 3 -5 10 -7 15 -4 5 4 9 -1 9 -11 0 -19 -12 -12
-63 39 -16 15 -33 27 -39 27 -15 0 -37 31 -38 53 0 9 -4 17 -8 17 -5 0 -15 11
-22 25 -7 14 -19 25 -27 25 -7 0 -23 20 -35 45 -12 25 -27 45 -34 45 -6 0 -17
14 -24 30 -7 17 -16 30 -21 30 -12 0 -12 -4 8 -45 15 -31 15 -37 3 -45 -14 -9
-11 -12 17 -14 7 -1 13 -6 14 -11 2 -21 20 -45 34 -45 8 0 12 -6 10 -12 -5
-15 33 -61 58 -71 10 -4 17 -17 17 -33 0 -21 4 -25 20 -21 11 3 18 2 15 -3 -3
-4 2 -10 10 -14 8 -3 15 -11 15 -18 0 -7 9 -19 21 -26 14 -9 17 -17 11 -25 -5
-7 -4 -26 2 -49 9 -29 14 -35 27 -28 11 7 16 5 16 -5 0 -8 -4 -15 -9 -15 -5 0
-7 -4 -3 -9 3 -5 -5 -13 -17 -17 -13 -4 -26 -12 -30 -18 -6 -7 -10 -8 -15 -1
-5 6 -20 16 -35 22 -16 7 -28 17 -28 23 0 6 -4 9 -9 5 -5 -3 -12 -1 -16 5 -3
5 0 10 7 10 17 1 -62 32 -84 33 -9 1 -14 5 -12 9 8 12 -15 48 -31 48 -8 0 -15
4 -15 10 0 5 -18 27 -40 49 -22 22 -40 44 -40 49 0 5 -10 12 -23 16 -13 3 -36
17 -51 31 -15 14 -31 25 -37 25 -5 0 -9 9 -9 20 0 11 -7 20 -15 20 -17 0 -33
11 -73 51 -24 24 -70 46 -81 40 -2 -2 -7 3 -11 10 -10 16 -1 39 14 39 20 0
323 123 411 167 88 44 96 47 93 34z m1347 -211 c3 -6 -1 -7 -9 -4 -18 7 -21
14 -7 14 6 0 13 -4 16 -10z m-1885 -10 c-10 -6 -11 -10 -2 -10 6 0 12 -6 12
-12 0 -7 16 -24 34 -38 19 -14 32 -28 29 -32 -2 -5 3 -8 11 -8 9 0 21 -9 28
-19 9 -15 15 -17 25 -9 13 11 14 8 17 -32 1 -8 13 -16 28 -18 14 -2 29 -10 32
-18 3 -9 2 -12 -5 -8 -6 3 -5 -3 3 -15 7 -12 19 -21 26 -21 7 0 10 -4 7 -10
-3 -6 1 -7 9 -4 11 4 16 0 16 -14 0 -26 17 -37 33 -23 10 7 18 4 31 -14 10
-14 22 -23 26 -20 4 2 13 -7 20 -20 7 -14 21 -27 29 -30 9 -3 25 -18 34 -35
10 -16 22 -30 28 -30 5 0 9 -6 9 -14 0 -8 14 -19 30 -25 17 -5 30 -15 30 -20
0 -6 9 -11 19 -11 11 0 26 -7 35 -15 8 -8 22 -15 30 -15 9 0 16 -7 16 -15 0
-8 7 -15 16 -15 9 0 22 -7 28 -15 6 -8 22 -16 36 -17 14 -2 32 -11 41 -20 9
-10 21 -18 28 -18 6 0 11 -4 11 -10 0 -5 7 -10 15 -10 17 0 52 -18 73 -38 18
-16 8 -42 -17 -42 -11 0 -21 -4 -23 -9 -1 -5 -30 -11 -63 -14 -33 -3 -94 -9
-136 -13 -85 -7 -75 -12 -176 83 -31 29 -59 50 -63 48 -3 -2 -14 4 -23 13 -24
26 -45 42 -54 42 -5 0 -15 9 -23 20 -8 11 -22 20 -31 20 -10 0 -42 23 -72 50
-30 28 -60 50 -66 50 -6 0 -21 11 -33 25 -12 14 -27 25 -33 25 -7 0 -24 11
-39 25 -14 13 -26 21 -26 17 0 -3 -7 4 -16 16 -13 19 -22 22 -47 17 -18 -4
-43 -14 -56 -22 -23 -15 -26 -14 -41 5 -16 19 -19 20 -39 5 -20 -14 -23 -13
-35 3 -9 11 -18 14 -27 8 -8 -4 -24 -8 -36 -9 -12 0 -25 -3 -29 -7 -14 -14
-41 -8 -60 13 -10 12 -31 27 -45 35 -26 13 -54 66 -42 78 4 3 -1 6 -10 6 -10
0 -25 9 -34 20 -10 11 -23 20 -29 20 -6 0 -23 9 -37 20 -14 11 -36 20 -49 20
-42 0 -142 11 -147 15 -2 3 25 5 60 5 161 1 465 48 639 99 74 22 91 25 70 11z
m-1360 -46 c95 -21 243 -41 420 -55 129 -11 157 -16 168 -31 7 -10 19 -18 27
-18 7 0 15 -4 17 -9 2 -5 27 -18 57 -28 53 -18 80 -43 47 -43 -9 0 -16 -4 -16
-9 0 -5 9 -7 20 -4 11 3 20 10 20 16 0 7 4 7 12 -1 7 -7 20 -12 30 -12 10 0
18 -7 18 -15 0 -8 15 -21 33 -28 38 -17 87 -64 87 -85 0 -10 7 -13 21 -9 22 6
42 -24 21 -31 -7 -2 -12 -8 -12 -14 0 -7 5 -7 13 1 8 6 17 8 20 4 4 -3 24 -8
45 -10 20 -2 41 -8 47 -14 12 -12 28 -12 21 0 -3 5 1 14 9 21 12 10 15 10 15
-1 0 -11 2 -11 10 1 9 14 11 13 14 -9 0 -5 5 -13 9 -18 5 -4 7 -2 5 6 -2 8 6
14 20 16 15 1 21 -3 18 -12 -3 -7 -1 -13 4 -13 6 0 10 9 10 20 0 27 14 25 30
-5 7 -14 21 -25 31 -25 19 0 49 25 49 41 0 6 7 3 16 -5 8 -9 19 -16 23 -16 4
0 13 -12 20 -27 9 -20 15 -24 21 -14 8 14 30 7 30 -10 0 -6 -4 -7 -10 -4 -5 3
-10 2 -10 -3 0 -12 30 -37 30 -26 0 5 5 2 10 -6 7 -12 10 -8 10 15 1 28 2 29
15 11 7 -10 18 -15 23 -12 13 8 36 -20 28 -33 -4 -6 2 -8 14 -6 11 2 18 0 15
-6 -4 -5 -1 -9 6 -9 8 0 8 -4 -1 -15 -13 -16 -9 -18 25 -16 11 1 30 -7 42 -18
11 -11 24 -17 29 -13 4 4 5 2 1 -3 -9 -17 11 -43 21 -28 9 15 52 6 52 -11 0
-7 11 -18 24 -25 13 -7 29 -25 35 -39 9 -19 15 -22 23 -14 17 17 28 15 28 -4
0 -9 -9 -18 -20 -21 -11 -3 -20 -10 -20 -15 0 -5 -4 -7 -9 -3 -6 3 -39 1 -74
-5 -67 -10 -435 -13 -591 -4 -50 2 -96 10 -104 17 -17 14 -102 18 -102 5 0 -5
-5 -6 -11 -2 -6 3 -9 15 -6 25 6 22 -29 37 -46 20 -7 -7 -14 -7 -23 0 -8 7
-13 3 -18 -16 -6 -22 -11 -25 -42 -23 -20 1 -39 8 -42 16 -4 11 -6 11 -13 0
-6 -9 -9 -7 -9 8 0 12 -7 21 -15 21 -8 0 -15 -9 -15 -19 0 -11 -5 -16 -10 -13
-6 3 -40 8 -78 11 -37 2 -96 11 -132 19 -36 8 -79 17 -96 19 -94 12 -112 18
-118 38 -4 18 -7 19 -21 8 -28 -23 -140 8 -151 42 -3 10 -12 18 -21 18 -9 0
-13 -6 -9 -15 3 -8 0 -15 -6 -15 -19 0 -93 23 -106 34 -8 5 -21 11 -30 13
-108 17 -152 28 -177 41 -16 8 -40 17 -52 18 -12 1 -43 13 -70 25 -26 13 -61
28 -78 34 -78 29 -95 40 -95 60 0 16 -2 17 -10 5 -6 -9 -10 -10 -10 -3 0 27
140 213 224 297 84 83 195 105 346 70z m2470 -254 c0 -5 -2 -10 -4 -10 -3 0
-8 5 -11 10 -3 6 -1 10 4 10 6 0 11 -4 11 -10z m-370 -26 c0 -8 -4 -14 -8 -14
-4 0 -8 9 -8 19 0 11 4 17 8 15 4 -3 8 -12 8 -20z m-50 -54 c0 -5 -5 -10 -11
-10 -5 0 -7 5 -4 10 3 6 8 10 11 10 2 0 4 -4 4 -10z m83 -85 c34 9 38 -5 10
-34 -18 -19 -23 -21 -23 -8 0 10 -7 17 -15 17 -8 0 -15 -8 -15 -19 0 -23 39
-36 47 -15 3 8 14 14 25 14 10 0 17 4 14 8 -3 5 5 8 17 7 12 -1 23 -9 25 -18
2 -10 -3 -14 -15 -13 -27 4 -64 -15 -62 -33 3 -29 -1 -34 -16 -21 -8 7 -12 16
-9 21 3 5 2 9 -3 8 -24 -4 -43 3 -43 17 0 9 -5 13 -12 9 -7 -4 -5 0 5 8 9 8
17 27 17 42 0 22 3 25 14 16 8 -7 25 -9 39 -6z m292 -5 c-8 13 -6 13 8 1 9 -7
26 -11 37 -8 11 3 18 1 14 -4 -3 -5 -25 -9 -50 -9 -28 0 -43 4 -39 10 3 6 1
10 -5 10 -6 0 -8 5 -5 11 5 7 14 4 28 -8 14 -12 18 -13 12 -3z m124 -16 c-21
-22 -23 -22 -35 -6 -11 15 -9 19 14 29 38 16 48 5 21 -23z m-511 -25 c-2 -6
-8 -10 -13 -10 -5 0 -11 4 -13 10 -2 6 4 11 13 11 9 0 15 -5 13 -11z m290 -41
c9 -1 12 -10 9 -25 -4 -20 -2 -21 11 -11 14 11 15 10 8 -7 -4 -11 -4 -17 -1
-13 4 3 20 2 36 -2 17 -5 29 -5 29 1 0 5 -5 9 -12 9 -6 0 -8 3 -4 7 4 4 16 -3
26 -17 17 -22 20 -23 40 -9 21 14 27 13 61 -4 22 -11 39 -25 39 -33 0 -8 6
-11 15 -8 9 4 15 0 15 -8 0 -7 -8 -14 -17 -15 -39 -4 -257 -44 -261 -48 -8 -8
-42 16 -42 30 0 8 -18 29 -40 46 -30 24 -37 35 -28 42 9 6 7 7 -5 3 -18 -6
-47 14 -47 32 0 5 12 10 26 10 15 0 30 5 34 12 4 7 15 10 24 7 8 -3 18 -1 22
4 3 6 16 8 28 4 11 -3 27 -7 34 -7z m157 2 c3 -5 -1 -10 -9 -10 -8 0 -18 5
-21 10 -3 6 1 10 9 10 8 0 18 -4 21 -10z m3531 -1284 c-5 -27 -3 -34 12 -38
10 -3 19 -13 19 -22 0 -19 -28 -21 -45 -4 -9 9 -12 9 -12 0 0 -15 -46 -16 -56
-1 -3 6 -18 8 -33 4 l-26 -6 30 25 c17 13 42 27 57 30 15 3 29 14 33 26 11 34
28 23 21 -14z m-101 -85 c7 -12 -12 -24 -25 -16 -11 7 -4 25 10 25 5 0 11 -4
15 -9z"/>
<path d="M4270 7439 c-7 -11 -10 -23 -7 -25 2 -2 9 7 15 21 14 30 7 33 -8 4z"/>
<path d="M4378 7414 c-16 -8 -28 -19 -28 -25 0 -6 -12 -26 -26 -45 -15 -19
-24 -37 -21 -40 3 -3 19 15 37 40 17 25 34 46 38 46 4 0 13 9 20 20 14 24 15
23 -20 4z"/>
<path d="M4226 7356 c3 -8 -2 -16 -10 -19 -13 -4 -13 -5 1 -3 19 1 32 36 14
36 -6 0 -8 -6 -5 -14z"/>
<path d="M4277 7271 c-4 -17 -3 -21 5 -13 5 5 8 16 6 23 -3 8 -7 3 -11 -10z"/>
<path d="M4240 7214 c0 -14 3 -14 15 -4 8 7 15 14 15 16 0 2 -7 4 -15 4 -8 0
-15 -7 -15 -16z"/>
<path d="M4201 7147 c-6 -8 -8 -17 -4 -21 4 -4 0 -4 -9 -1 -11 5 -17 -1 -21
-22 -6 -29 11 -59 20 -35 3 6 10 12 17 12 8 0 13 15 14 40 2 44 0 47 -17 27z"/>
<path d="M7905 7060 c-3 -5 -1 -10 4 -10 6 0 11 5 11 10 0 6 -2 10 -4 10 -3 0
-8 -4 -11 -10z"/>
<path d="M4160 6941 c-5 -11 -10 -32 -10 -48 0 -19 -3 -24 -9 -14 -6 9 -11 10
-15 2 -9 -14 2 -33 15 -25 6 3 14 16 19 29 7 17 14 22 29 18 24 -6 25 -4 11
31 -11 31 -25 33 -40 7z"/>
<path d="M5570 6890 c0 -5 7 -10 15 -10 8 0 15 5 15 10 0 6 -7 10 -15 10 -8 0
-15 -4 -15 -10z"/>
<path d="M4233 6871 c-15 -24 -6 -59 18 -66 11 -4 17 -10 14 -15 -3 -4 4 -6
15 -3 12 3 20 14 20 26 0 19 1 19 18 4 10 -10 23 -17 29 -17 12 0 26 -30 18
-38 -3 -3 -16 0 -30 6 -40 18 -27 -10 14 -30 46 -24 54 -23 47 6 -3 14 -1 28
5 31 15 10 -70 80 -98 81 -13 1 -31 8 -41 17 -16 15 -19 15 -29 -2z"/>
<path d="M4435 6760 c-4 -6 -3 -14 0 -20 9 -15 35 -12 35 4 0 17 -27 29 -35
16z"/>
<path d="M4496 6727 c3 -10 9 -15 12 -12 3 3 0 11 -7 18 -10 9 -11 8 -5 -6z"/>
<path d="M4542 6722 c-12 -2 -20 -8 -16 -13 3 -5 10 -7 15 -4 5 4 9 1 9 -6 0
-10 3 -10 11 -2 16 16 7 28 -19 25z"/>
<path d="M4605 6671 c3 -6 14 -9 25 -8 24 2 15 17 -11 17 -11 0 -18 -4 -14 -9z"/>
<path d="M4705 6640 c3 -5 8 -10 11 -10 2 0 4 5 4 10 0 6 -5 10 -11 10 -5 0
-7 -4 -4 -10z"/>
<path d="M4730 6620 c0 -5 7 -10 16 -10 8 0 12 5 9 10 -3 6 -10 10 -16 10 -5
0 -9 -4 -9 -10z"/>
<path d="M4575 6590 c3 -5 13 -10 21 -10 8 0 12 5 9 10 -3 6 -13 10 -21 10 -8
0 -12 -4 -9 -10z"/>
<path d="M4804 6589 c-11 -18 11 -32 25 -16 9 12 8 16 -3 20 -9 4 -18 1 -22
-4z"/>
<path d="M4930 6590 c0 -5 4 -10 9 -10 6 0 13 5 16 10 3 6 -1 10 -9 10 -9 0
-16 -4 -16 -10z"/>
<path d="M1445 6570 c-3 -5 -1 -10 4 -10 6 0 11 5 11 10 0 6 -2 10 -4 10 -3 0
-8 -4 -11 -10z"/>
<path d="M1775 6432 c-24 -8 -95 -64 -95 -74 0 -13 22 -9 39 7 25 21 129 36
145 19 10 -9 16 -10 25 -1 8 8 11 8 11 -2 0 -11 3 -11 15 -1 24 20 19 25 -38
43 -57 18 -70 19 -102 9z"/>
<path d="M1903 6283 c-11 -32 -56 -73 -80 -73 -13 0 -23 -4 -23 -10 0 -16
-317 -97 -343 -87 -18 7 -53 -23 -62 -50 -5 -20 -3 -23 19 -23 23 0 31 9 27
32 0 4 7 7 17 7 9 0 35 5 57 11 22 6 63 15 90 20 28 5 66 14 85 19 19 6 49 11
65 11 17 0 36 5 41 10 6 6 21 12 33 15 42 8 65 18 93 38 33 24 37 41 8 32 -24
-8 -26 1 -5 21 8 9 15 11 15 5 0 -6 4 -11 8 -11 4 0 8 9 8 20 0 10 -2 17 -4
15 -3 -2 -13 0 -23 6 -15 8 -21 6 -26 -8z"/>
<path d="M2094 6215 c-53 -26 -89 -53 -142 -109 -84 -89 -105 -126 -104 -185
0 -56 26 -91 82 -112 45 -17 67 -13 139 24 19 9 42 17 52 17 10 0 21 5 24 10
3 6 13 10 21 10 41 0 165 154 163 204 0 17 2 50 5 72 7 56 -8 73 -79 90 -80
18 -80 19 -161 -21z m182 -20 c15 -15 23 -32 20 -41 -3 -9 -6 -22 -6 -29 0
-38 -169 -229 -243 -274 -29 -18 -47 -22 -74 -18 -42 7 -73 32 -73 60 0 33 89
157 175 244 80 81 83 83 129 83 37 0 52 -5 72 -25z"/>
<path d="M4012 6183 c5 -25 28 -28 28 -4 0 12 -6 21 -16 21 -9 0 -14 -7 -12
-17z"/>
<path d="M2470 6058 c-19 -23 -61 -68 -92 -99 -32 -32 -58 -60 -58 -63 0 -11
21 -6 35 8 12 11 23 9 72 -16 69 -34 80 -44 88 -80 6 -23 -1 -35 -40 -77 -50
-54 -104 -78 -147 -68 -14 4 -49 23 -80 43 -55 36 -55 37 -45 70 6 19 8 37 4
40 -11 12 -24 -6 -37 -50 -11 -40 -10 -47 7 -65 10 -11 39 -29 63 -40 74 -34
219 -24 234 15 3 7 11 11 18 9 19 -8 61 34 55 55 -3 13 0 16 12 13 13 -3 17 2
16 24 0 15 -6 39 -14 52 -12 21 -12 23 3 18 14 -6 14 -2 -3 22 -25 35 -96 65
-140 58 -42 -7 -39 5 13 48 25 20 49 48 54 63 11 31 44 39 63 16 6 -8 22 -14
34 -14 16 0 26 -8 33 -29 13 -37 67 -68 87 -51 8 7 18 9 23 6 6 -3 15 1 21 8
10 12 1 20 -52 45 -36 17 -70 31 -76 31 -7 0 -29 11 -49 25 -20 14 -44 25 -52
25 -9 0 -31 -19 -50 -42z"/>
<path d="M1526 6065 c4 -8 14 -15 23 -15 14 0 46 -22 91 -63 8 -8 30 -24 48
-37 l32 -24 27 27 27 26 -30 11 c-16 6 -47 20 -69 30 -63 30 -137 60 -146 60
-5 0 -6 -7 -3 -15z"/>
<path d="M1430 5386 c0 -9 5 -16 10 -16 6 0 10 4 10 9 0 6 -4 13 -10 16 -5 3
-10 -1 -10 -9z"/>
<path d="M8170 5291 c0 -6 5 -13 10 -16 6 -3 10 1 10 9 0 9 -4 16 -10 16 -5 0
-10 -4 -10 -9z"/>
<path d="M1445 4997 c-4 -8 -1 -26 7 -39 l13 -23 3 29 c4 33 -14 59 -23 33z"/>
<path d="M830 4940 c0 -5 5 -10 10 -10 6 0 10 5 10 10 0 6 -4 10 -10 10 -5 0
-10 -4 -10 -10z"/>
<path d="M8460 4935 c-7 -9 -10 -18 -6 -22 3 -3 6 -1 6 6 0 7 5 9 10 6 6 -3
10 1 10 9 0 20 -4 20 -20 1z"/>
<path d="M8662 4848 c-14 -14 -16 -42 -3 -34 7 5 23 46 17 46 -1 0 -7 -5 -14
-12z"/>
<path d="M8815 4830 c-3 -5 -1 -10 4 -10 6 0 11 5 11 10 0 6 -2 10 -4 10 -3 0
-8 -4 -11 -10z"/>
<path d="M6886 4712 c-3 -6 -1 -14 5 -17 14 -9 20 -2 10 14 -6 8 -11 9 -15 3z"/>
<path d="M6770 4550 c-13 -9 -13 -10 0 -9 8 1 26 5 40 9 l25 8 -25 1 c-14 0
-32 -4 -40 -9z"/>
<path d="M6675 4480 c3 -5 8 -10 11 -10 2 0 4 5 4 10 0 6 -5 10 -11 10 -5 0
-7 -4 -4 -10z"/>
<path d="M6586 4461 c-3 -5 1 -11 9 -15 8 -3 15 -1 15 4 0 13 -18 22 -24 11z"/>
<path d="M1740 4123 c0 -4 5 -15 10 -23 8 -13 10 -13 10 2 0 9 -4 20 -10 23
-5 3 -10 3 -10 -2z"/>
<path d="M1740 4064 c0 -8 5 -12 10 -9 6 4 8 11 5 16 -9 14 -15 11 -15 -7z"/>
<path d="M6520 4050 c15 -28 29 -33 27 -11 0 11 -9 22 -19 24 -14 4 -16 2 -8
-13z"/>
<path d="M6440 4042 c0 -5 8 -12 18 -16 9 -3 23 -9 30 -12 7 -3 12 1 12 10 0
9 -6 16 -14 16 -8 0 -21 3 -30 6 -9 3 -16 2 -16 -4z"/>
<path d="M6580 4000 c0 -5 5 -10 11 -10 5 0 7 5 4 10 -3 6 -8 10 -11 10 -2 0
-4 -4 -4 -10z"/>
<path d="M960 3990 c0 -5 5 -10 11 -10 5 0 7 5 4 10 -3 6 -8 10 -11 10 -2 0
-4 -4 -4 -10z"/>
<path d="M6671 3974 c0 -11 3 -14 6 -6 3 7 2 16 -1 19 -3 4 -6 -2 -5 -13z"/>
<path d="M1290 3959 c0 -5 5 -7 10 -4 6 3 10 8 10 11 0 2 -4 4 -10 4 -5 0 -10
-5 -10 -11z"/>
<path d="M6975 3950 c-3 -5 -2 -10 4 -10 5 0 13 5 16 10 3 6 2 10 -4 10 -5 0
-13 -4 -16 -10z"/>
<path d="M6933 3925 c-3 -9 -3 -18 0 -21 9 -9 27 6 27 22 0 19 -19 18 -27 -1z"/>
<path d="M1301 3907 c-6 -8 -8 -17 -4 -20 12 -13 22 -7 20 13 -2 24 -1 24 -16
7z"/>
<path d="M6780 3900 c0 -5 5 -10 11 -10 5 0 7 5 4 10 -3 6 -8 10 -11 10 -2 0
-4 -4 -4 -10z"/>
<path d="M1813 3880 c3 -10 0 -21 -7 -24 -6 -2 -3 -5 7 -5 12 -1 17 7 17 24 0
14 -5 25 -11 25 -6 0 -9 -9 -6 -20z"/>
<path d="M1490 3875 c0 -8 4 -15 10 -15 5 0 7 7 4 15 -4 8 -8 15 -10 15 -2 0
-4 -7 -4 -15z"/>
<path d="M6618 3839 c-70 -75 -63 -114 29 -154 90 -40 117 -35 168 35 34 46
45 93 25 105 -15 10 -12 23 8 29 9 3 1 4 -18 2 -21 -2 -50 4 -72 15 -61 31
-86 25 -140 -32z m151 5 c77 -40 79 -46 40 -104 -19 -27 -46 -54 -61 -61 -24
-10 -35 -7 -90 21 -59 31 -77 45 -78 62 0 3 18 29 40 57 48 61 72 65 149 25z"/>
<path d="M6672 3814 c-22 -15 -29 -48 -14 -72 5 -7 24 -15 44 -18 42 -7 68 14
68 56 0 22 -6 30 -31 39 -40 14 -40 14 -67 -5z m80 -28 c12 -17 9 -25 -11 -36
-42 -22 -89 -1 -75 33 10 27 69 29 86 3z"/>
<path d="M6790 3790 c0 -5 5 -10 10 -10 6 0 10 5 10 10 0 6 -4 10 -10 10 -5 0
-10 -4 -10 -10z"/>
<path d="M6876 3845 c-11 -8 -17 -18 -13 -21 4 -4 13 -1 22 6 12 10 15 10 15
-1 0 -11 2 -11 10 1 21 32 0 41 -34 15z"/>
<path d="M1307 3836 c-9 -24 -10 -23 15 -22 12 0 23 7 26 15 3 10 0 12 -11 8
-9 -3 -17 -1 -20 6 -2 6 -6 3 -10 -7z"/>
<path d="M1495 3830 c-3 -5 -1 -10 4 -10 6 0 11 5 11 10 0 6 -2 10 -4 10 -3 0
-8 -4 -11 -10z"/>
<path d="M1801 3804 c0 -11 3 -14 6 -6 3 7 2 16 -1 19 -3 4 -6 -2 -5 -13z"/>
<path d="M1345 3750 c2 -31 15 -37 15 -7 0 15 -4 27 -8 27 -5 0 -8 -9 -7 -20z"/>
<path d="M1491 3743 c-8 -18 -9 -29 -1 -37 7 -7 10 -2 10 16 0 15 5 28 12 30
8 3 9 6 1 11 -5 3 -15 -5 -22 -20z"/>
<path d="M6914 3711 c-22 -10 -54 -48 -54 -64 0 -5 16 5 35 22 40 35 74 39
119 16 34 -18 41 -15 23 9 -15 21 -90 31 -123 17z"/>
<path d="M1326 3685 c4 -16 10 -37 15 -45 7 -12 8 -11 8 5 0 11 -6 31 -14 45
l-15 25 6 -30z"/>
<path d="M1360 3699 c0 -5 5 -7 10 -4 6 3 10 8 10 11 0 2 -4 4 -10 4 -5 0 -10
-5 -10 -11z"/>
<path d="M1365 3671 c-3 -5 -2 -12 3 -15 5 -3 9 1 9 9 0 17 -3 19 -12 6z"/>
<path d="M6918 3664 c-38 -20 -37 -44 2 -44 20 0 30 -5 30 -15 0 -10 10 -15
30 -15 27 0 29 -2 21 -23 -12 -30 7 -55 48 -63 18 -4 35 -13 38 -20 3 -8 16
-14 29 -14 36 0 29 -17 -11 -24 -55 -11 -82 -74 -38 -90 16 -7 66 17 96 45 21
20 37 25 37 12 0 -5 14 -8 30 -9 17 -1 39 -9 49 -18 27 -25 53 -26 76 -4 20
20 20 20 -25 14 l-45 -5 38 11 c39 10 57 32 41 48 -8 8 -39 0 -98 -25 -18 -8
-18 -7 -2 17 9 14 15 30 14 36 -2 6 6 18 17 26 16 12 17 15 4 16 -26 0 -79
-21 -74 -30 7 -11 -3 -16 -45 -24 l-35 -7 33 30 c17 17 32 33 32 35 0 12 -60
12 -103 -1 -81 -24 -125 8 -74 54 44 41 97 56 97 29 0 -20 26 -27 39 -12 33
39 -27 60 -93 32 -32 -13 -33 -13 -28 6 4 17 1 16 -21 -6 -25 -25 -67 -36 -67
-17 0 6 14 18 30 28 34 20 37 28 14 37 -25 10 -57 6 -86 -10z m42 -19 c-35
-20 -62 -19 -36 0 11 8 29 15 40 15 19 -1 19 -2 -4 -15z m196 -140 c-11 -8
-27 -15 -35 -15 -13 1 -12 4 3 15 11 8 27 15 35 15 13 -1 12 -4 -3 -15z m104
-33 c0 -13 -23 -32 -39 -32 -11 0 -10 4 4 20 19 21 35 26 35 12z m-123 -67
c-26 -23 -77 -35 -77 -18 0 20 37 43 69 43 l36 -1 -28 -24z"/>
<path d="M1380 3592 c0 -14 36 -43 43 -35 11 10 8 25 -3 18 -6 -3 -13 1 -16 9
-6 17 -24 22 -24 8z"/>
<path d="M6894 3575 c11 -8 31 -14 45 -14 21 1 22 2 6 6 -11 3 -24 9 -29 14
-6 5 -17 9 -25 9 -13 -1 -12 -4 3 -15z"/>
<path d="M1913 3525 c0 -8 4 -15 8 -15 5 0 6 -7 3 -15 -4 -8 -1 -15 5 -15 6 0
11 -6 11 -13 0 -8 7 -14 15 -14 13 0 13 2 0 17 -11 13 -12 19 -3 28 9 9 8 12
-5 12 -9 0 -17 7 -17 15 0 8 -4 15 -8 15 -5 0 -9 -7 -9 -15z"/>
<path d="M1962 3408 c-19 -19 -14 -30 8 -18 11 6 20 15 20 20 0 14 -14 12 -28
-2z"/>
<path d="M7195 3380 c-3 -5 -1 -10 4 -10 6 0 11 5 11 10 0 6 -2 10 -4 10 -3 0
-8 -4 -11 -10z"/>
<path d="M2015 3250 c-3 -5 -1 -10 4 -10 6 0 11 5 11 10 0 6 -2 10 -4 10 -3 0
-8 -4 -11 -10z"/>
<path d="M2030 3216 c0 -8 4 -17 9 -20 5 -4 7 3 4 14 -6 23 -13 26 -13 6z"/>
<path d="M2037 3148 c2 -18 5 -44 7 -58 3 -14 5 -28 5 -32 1 -3 9 -4 20 -1 21
5 26 49 6 57 -8 3 -12 13 -10 23 2 18 -11 43 -24 43 -3 0 -5 -15 -4 -32z"/>
<path d="M5993 3053 c-18 -28 -25 -47 -24 -75 0 -10 -9 -23 -20 -29 -12 -6
-19 -13 -16 -15 7 -7 57 18 52 27 -3 4 3 5 13 2 12 -3 19 1 19 11 0 8 -4 14
-8 13 -4 -1 -6 3 -5 8 0 6 7 9 14 9 6 -1 12 4 12 12 0 8 -5 14 -11 14 -6 0 -3
7 5 16 16 15 13 34 -4 34 -5 0 -17 -12 -27 -27z"/>
<path d="M7135 3070 c-3 -6 1 -7 9 -4 18 7 21 14 7 14 -6 0 -13 -4 -16 -10z"/>
<path d="M5966 3055 c-3 -8 -1 -15 4 -15 6 0 10 7 10 15 0 8 -2 15 -4 15 -2 0
-6 -7 -10 -15z"/>
<path d="M2065 3040 c-8 -13 -1 -24 14 -19 6 3 7 10 2 18 -6 10 -10 10 -16 1z"/>
<path d="M7140 3035 c-10 -12 -10 -19 -2 -27 9 -9 12 -7 12 11 0 14 4 20 12
15 7 -4 8 -3 4 4 -9 15 -11 15 -26 -3z"/>
<path d="M7190 3034 c0 -20 14 -24 46 -14 16 4 23 9 16 9 -7 1 -11 5 -7 10 3
5 -8 9 -25 9 -17 -1 -30 -6 -30 -14z"/>
<path d="M7079 3028 c0 -2 -2 -14 -5 -28 -4 -24 -3 -25 12 -5 8 11 20 19 25
18 5 -2 9 2 9 7 0 8 -38 15 -41 8z"/>
<path d="M6855 3010 c3 -5 8 -10 11 -10 2 0 4 5 4 10 0 6 -5 10 -11 10 -5 0
-7 -4 -4 -10z"/>
<path d="M1687 2991 c-4 -17 -3 -21 5 -13 5 5 8 16 6 23 -3 8 -7 3 -11 -10z"/>
<path d="M2080 2995 c-9 -11 -10 -18 -1 -28 6 -8 8 -17 4 -20 -3 -4 0 -7 8 -7
11 0 14 9 11 35 -5 40 -5 40 -22 20z"/>
<path d="M6966 2963 c-3 -3 -3 -10 0 -14 7 -12 34 -11 34 0 0 11 -26 22 -34
14z"/>
<path d="M6900 2940 c-8 -15 -8 -20 1 -20 7 0 18 -8 25 -17 11 -16 13 -15 10
12 -2 17 -4 33 -5 38 -2 14 -20 7 -31 -13z"/>
<path d="M7070 2933 c0 -7 7 -13 15 -13 8 0 15 6 15 13 0 8 -7 14 -15 14 -8 0
-15 -6 -15 -14z"/>
<path d="M6873 2885 c-9 -24 1 -27 20 -5 14 17 15 20 2 20 -9 0 -18 -7 -22
-15z"/>
<path d="M6951 2886 c-15 -9 -20 -16 -12 -20 6 -4 18 0 27 9 22 21 15 26 -15
11z"/>
<path d="M2115 2880 c3 -5 8 -10 11 -10 2 0 4 5 4 10 0 6 -5 10 -11 10 -5 0
-7 -4 -4 -10z"/>
<path d="M5857 2874 c3 -9 6 -32 7 -53 1 -20 6 -36 11 -37 6 0 23 -6 40 -13
20 -8 31 -9 33 -2 2 6 11 11 20 11 15 0 15 -2 2 -10 -13 -8 -12 -10 3 -10 9 0
17 4 17 9 0 13 -26 32 -34 24 -4 -4 -2 5 3 21 15 37 1 64 -17 35 -10 -16 -10
-19 -1 -14 8 5 10 4 5 -3 -11 -18 -53 -14 -62 6 -8 20 -11 28 -13 42 0 6 -5
10 -11 10 -5 0 -7 -7 -3 -16z"/>
<path d="M6890 2855 c-7 -9 -10 -18 -6 -22 3 -3 6 -2 6 4 0 6 9 9 20 6 16 -4
19 -2 14 11 -8 20 -18 20 -34 1z"/>
<path d="M2073 2828 c-1 -11 3 -30 9 -41 10 -19 11 -19 20 -3 5 10 7 20 4 23
-3 3 5 14 17 24 12 10 17 18 10 19 -6 0 -14 -6 -17 -12 -5 -10 -7 -10 -12 0
-9 20 -30 14 -31 -10z"/>
<path d="M6831 2833 c0 -5 3 -15 7 -24 6 -13 9 -14 18 -5 9 10 7 16 -7 24 -11
7 -19 9 -18 5z"/>
<path d="M1867 2822 c-10 -14 2 -62 15 -62 6 0 8 7 4 15 -3 8 2 19 12 24 16
10 16 10 0 11 -9 0 -18 5 -20 12 -3 9 -6 9 -11 0z"/>
<path d="M6712 2811 c-11 -7 -11 -9 0 -14 9 -3 15 1 15 9 0 8 -1 14 -1 14 -1
0 -7 -4 -14 -9z"/>
<path d="M6656 2765 c4 -8 8 -15 10 -15 2 0 4 7 4 15 0 8 -4 15 -10 15 -5 0
-7 -7 -4 -15z"/>
<path d="M5855 2750 c-3 -5 -1 -10 4 -10 6 0 11 5 11 10 0 6 -2 10 -4 10 -3 0
-8 -4 -11 -10z"/>
<path d="M5980 2734 c0 -8 5 -12 10 -9 6 3 10 10 10 16 0 5 -4 9 -10 9 -5 0
-10 -7 -10 -16z"/>
<path d="M6125 2730 c3 -5 8 -10 11 -10 2 0 4 5 4 10 0 6 -5 10 -11 10 -5 0
-7 -4 -4 -10z"/>
<path d="M6580 2725 c0 -8 5 -15 10 -15 6 0 10 7 10 15 0 8 -4 15 -10 15 -5 0
-10 -7 -10 -15z"/>
<path d="M5837 2724 c7 -3 9 -12 6 -20 -3 -8 0 -14 6 -14 7 0 9 -10 7 -25 -3
-15 -1 -23 5 -20 5 4 12 -2 16 -12 6 -16 8 -15 13 7 4 14 2 36 -4 50 -5 14
-10 26 -11 26 0 1 -11 4 -25 8 -14 3 -20 3 -13 0z"/>
<path d="M6545 2710 c3 -5 8 -10 11 -10 2 0 4 5 4 10 0 6 -5 10 -11 10 -5 0
-7 -4 -4 -10z"/>
<path d="M6566 2681 c-16 -17 -16 -19 0 -25 11 -4 15 -2 11 8 -3 8 -1 17 6 19
7 2 9 7 6 11 -3 3 -13 -2 -23 -13z"/>
<path d="M5960 2680 c0 -5 5 -10 11 -10 5 0 7 5 4 10 -3 6 -8 10 -11 10 -2 0
-4 -4 -4 -10z"/>
<path d="M5986 2665 c-12 -9 -17 -21 -13 -35 4 -15 2 -20 -8 -17 -7 3 -17 1
-23 -5 -8 -8 -15 -8 -25 1 -12 9 -13 7 -9 -14 5 -31 -11 -33 -25 -3 -6 15 -12
18 -17 10 -4 -7 -2 -12 3 -12 15 0 14 -37 -1 -43 -7 -3 -2 -6 13 -6 14 -1 30
4 37 11 15 15 26 4 18 -18 -4 -9 -12 -14 -22 -10 -8 3 -12 2 -9 -4 3 -6 1 -10
-6 -10 -7 0 -9 -3 -5 -7 12 -12 86 -14 86 -2 0 5 5 7 11 3 7 -4 10 -1 7 7 -3
8 -14 13 -24 11 -15 -2 -16 -1 -5 7 8 5 12 15 9 23 -7 18 48 52 56 35 3 -9 5
-9 5 0 1 6 -3 15 -9 18 -15 9 -12 25 5 25 8 0 15 4 15 10 0 5 -10 9 -22 7 -17
-1 -23 3 -22 16 1 9 1 17 0 17 0 0 -9 -7 -20 -15z"/>
<path d="M2163 2654 c3 -11 9 -30 12 -43 5 -17 4 -21 -5 -16 -9 6 -9 3 -1 -14
15 -27 28 -27 37 1 4 14 1 25 -10 33 -9 7 -16 19 -16 28 0 9 -5 19 -11 23 -7
4 -9 0 -6 -12z"/>
<path d="M2360 2642 c0 -4 5 -13 12 -20 9 -9 8 -12 -7 -13 -19 0 -19 -1 0 -9
51 -22 70 -5 35 30 -20 20 -40 26 -40 12z"/>
<path d="M6494 2629 c-3 -6 1 -18 11 -27 16 -16 17 -16 6 5 -9 18 -8 22 7 26
15 4 15 5 0 6 -9 0 -20 -4 -24 -10z"/>
<path d="M6540 2621 c0 -11 26 -22 34 -14 3 3 3 10 0 14 -7 12 -34 11 -34 0z"/>
<path d="M6070 2600 c0 -5 5 -10 10 -10 6 0 10 5 10 10 0 6 -4 10 -10 10 -5 0
-10 -4 -10 -10z"/>
<path d="M6017 2546 c-3 -8 4 -18 18 -24 18 -9 25 -8 29 4 3 9 11 12 17 8 7
-4 9 -3 6 4 -8 12 -25 11 -46 -2 -9 -6 -12 -5 -7 2 3 6 2 13 -3 16 -5 3 -11 0
-14 -8z"/>
<path d="M6290 2531 c0 -17 18 -21 24 -6 3 9 0 15 -9 15 -8 0 -15 -4 -15 -9z"/>
<path d="M6455 2500 c3 -5 14 -10 23 -10 15 0 15 2 2 10 -20 13 -33 13 -25 0z"/>
<path d="M6516 2486 c3 -9 11 -16 16 -16 13 0 5 23 -10 28 -7 2 -10 -2 -6 -12z"/>
<path d="M6200 2460 c8 -5 20 -10 25 -10 6 0 3 5 -5 10 -8 5 -19 10 -25 10 -5
0 -3 -5 5 -10z"/>
<path d="M6460 2450 c0 -13 33 -21 42 -12 6 6 -1 11 -16 14 -14 3 -26 2 -26
-2z"/>
<path d="M6120 2442 c0 -17 34 -32 51 -21 11 7 10 9 -6 9 -12 0 -26 5 -33 12
-9 9 -12 9 -12 0z"/>
<path d="M5600 2416 c0 -2 7 -7 16 -10 8 -3 12 -2 9 4 -6 10 -25 14 -25 6z"/>
<path d="M5940 2371 c0 -5 8 -15 18 -22 15 -12 16 -12 5 2 -7 9 -10 19 -6 22
3 4 1 7 -5 7 -7 0 -12 -4 -12 -9z"/>
<path d="M6100 2339 c0 -5 5 -7 10 -4 6 3 10 8 10 11 0 2 -4 4 -10 4 -5 0 -10
-5 -10 -11z"/>
<path d="M6081 2250 c-2 -28 11 -60 25 -60 8 0 14 5 14 11 0 5 5 7 12 3 7 -4
8 -3 4 4 -4 7 -16 12 -26 12 -11 0 -20 9 -23 23 -2 12 -5 15 -6 7z"/>
<path d="M6220 2240 c0 -5 7 -10 16 -10 8 0 12 5 9 10 -3 6 -10 10 -16 10 -5
0 -9 -4 -9 -10z"/>
<path d="M6280 2220 c0 -5 5 -10 11 -10 5 0 7 5 4 10 -3 6 -8 10 -11 10 -2 0
-4 -4 -4 -10z"/>
<path d="M6325 2219 c-12 -19 5 -23 22 -6 16 16 16 17 1 17 -9 0 -20 -5 -23
-11z"/>
<path d="M6370 2210 c-13 -8 -13 -9 0 -14 38 -12 69 5 34 18 -19 7 -16 8 -34
-4z"/>
<path d="M6260 2175 c0 -8 2 -15 4 -15 2 0 6 7 10 15 3 8 1 15 -4 15 -6 0 -10
-7 -10 -15z"/>
<path d="M8213 3978 c-24 -46 -48 -284 -31 -294 5 -3 8 -16 8 -30 0 -13 4 -24
9 -24 16 0 18 34 3 64 -12 24 -12 30 0 37 8 5 14 30 15 66 3 98 6 111 21 105
11 -4 13 2 7 29 -4 19 -11 42 -14 52 -6 17 -8 16 -18 -5z"/>
<path d="M7931 3904 c0 -11 3 -14 6 -6 3 7 2 16 -1 19 -3 4 -6 -2 -5 -13z"/>
<path d="M8656 3911 c-4 -5 -2 -12 3 -15 5 -4 12 -2 15 3 4 5 2 12 -3 15 -5 4
-12 2 -15 -3z"/>
<path d="M7926 3857 c-5 -15 -6 -31 -2 -34 11 -11 18 5 14 34 l-4 28 -8 -28z"/>
<path d="M7930 3799 c0 -5 5 -7 10 -4 6 3 10 8 10 11 0 2 -4 4 -10 4 -5 0 -10
-5 -10 -11z"/>
<path d="M7595 3740 c3 -5 8 -10 11 -10 2 0 4 5 4 10 0 6 -5 10 -11 10 -5 0
-7 -4 -4 -10z"/>
<path d="M7924 3723 c2 -15 4 -38 5 -50 0 -13 5 -23 10 -23 14 0 8 93 -6 97
-8 3 -11 -5 -9 -24z"/>
<path d="M7931 3624 c0 -11 3 -14 6 -6 3 7 2 16 -1 19 -3 4 -6 -2 -5 -13z"/>
<path d="M8195 3587 c0 -17 8 -43 18 -57 l17 -24 0 26 c0 44 -12 88 -24 88 -6
0 -11 -15 -11 -33z"/>
<path d="M8517 3535 c-4 -8 -2 -17 3 -20 6 -4 10 3 10 14 0 25 -6 27 -13 6z"/>
<path d="M8198 3525 c-12 -19 -12 -140 -1 -161 7 -12 8 -25 4 -30 -5 -5 -11
-27 -13 -49 -3 -22 -9 -49 -13 -59 -6 -14 -5 -17 3 -12 7 4 12 1 12 -8 0 -8
-4 -17 -9 -21 -14 -8 -9 -104 5 -98 7 2 10 16 8 31 -2 15 2 50 9 79 8 29 10
50 5 47 -4 -3 -5 12 -2 33 3 21 7 43 7 48 1 6 6 13 12 17 5 4 2 15 -8 26 -23
25 -12 55 17 47 20 -6 20 -5 3 9 -11 8 -21 35 -25 63 -4 26 -10 44 -14 38z"/>
<path d="M8378 3185 c-8 -14 2 -65 13 -65 10 0 10 14 0 50 -4 14 -10 20 -13
15z"/>
<path d="M7420 3150 c-8 -9 -11 -10 -6 -3 5 8 4 13 -2 13 -15 0 -21 -25 -10
-41 7 -10 11 -11 14 -2 3 7 11 10 18 7 18 -7 27 18 12 32 -8 8 -16 6 -26 -6z"/>
<path d="M7676 3114 c-4 -9 -4 -19 -1 -22 7 -8 35 19 29 29 -8 14 -21 11 -28
-7z"/>
<path d="M8385 3100 c3 -5 8 -10 11 -10 2 0 4 5 4 10 0 6 -5 10 -11 10 -5 0
-7 -4 -4 -10z"/>
<path d="M7593 3067 c5 -16 34 -16 54 -1 16 12 14 13 -20 12 -21 -1 -36 -6
-34 -11z"/>
<path d="M7340 3046 c0 -2 7 -7 16 -10 8 -3 12 -2 9 4 -6 10 -25 14 -25 6z"/>
<path d="M7450 2960 c0 -5 5 -10 11 -10 5 0 7 5 4 10 -3 6 -8 10 -11 10 -2 0
-4 -4 -4 -10z"/>
<path d="M7952 2843 c2 -10 -3 -18 -9 -19 -26 -3 -28 -5 -14 -13 7 -5 10 -14
7 -20 -11 -16 -26 -13 -26 5 0 14 -3 14 -15 4 -22 -19 -13 -24 52 -34 12 -2
24 3 27 10 3 8 13 14 22 14 12 0 15 6 10 23 -3 12 -6 26 -6 30 0 5 -4 5 -10 2
-5 -3 -10 -1 -10 4 0 6 -7 11 -15 11 -10 0 -15 -7 -13 -17z"/>
<path d="M7972 2744 c-8 -9 -10 -23 -6 -37 7 -20 8 -19 16 12 11 39 8 45 -10
25z"/>
<path d="M7866 2721 c-4 -5 -2 -12 3 -15 5 -4 12 -2 15 3 4 5 2 12 -3 15 -5 4
-12 2 -15 -3z"/>
<path d="M7010 2589 c0 -5 5 -7 10 -4 6 3 10 8 10 11 0 2 -4 4 -10 4 -5 0 -10
-5 -10 -11z"/>
<path d="M7457 2483 c-10 -9 -9 -23 1 -23 5 0 9 7 9 15 0 17 -1 18 -10 8z"/>
<path d="M6670 2238 c0 -19 2 -20 10 -8 13 19 13 30 0 30 -5 0 -10 -10 -10
-22z"/>
<path d="M6645 2170 c-3 -5 -1 -10 4 -10 6 0 11 5 11 10 0 6 -2 10 -4 10 -3 0
-8 -4 -11 -10z"/>
<path d="M5200 2624 c0 -3 9 -19 21 -35 24 -34 45 -39 28 -7 -19 35 -49 61
-49 42z"/>
<path d="M5356 2513 c-6 -14 -5 -15 5 -6 7 7 10 15 7 18 -3 3 -9 -2 -12 -12z"/>
<path d="M5350 2480 c0 -5 5 -10 11 -10 5 0 7 5 4 10 -3 6 -8 10 -11 10 -2 0
-4 -4 -4 -10z"/>
<path d="M5450 2075 c0 -8 7 -15 15 -15 8 0 15 4 15 9 0 5 -7 11 -15 15 -9 3
-15 0 -15 -9z"/>
<path d="M5520 2049 c0 -5 5 -7 10 -4 6 3 10 8 10 11 0 2 -4 4 -10 4 -5 0 -10
-5 -10 -11z"/>
<path d="M4957 2383 c-4 -3 -7 -11 -7 -17 0 -6 5 -5 12 2 6 6 9 14 7 17 -3 3
-9 2 -12 -2z"/>
<path d="M5325 2050 c3 -5 8 -10 11 -10 2 0 4 5 4 10 0 6 -5 10 -11 10 -5 0
-7 -4 -4 -10z"/>
<path d="M5120 2019 c0 -4 7 -9 15 -13 9 -3 15 0 15 8 0 7 -7 13 -15 13 -8 0
-15 -4 -15 -8z"/>
<path d="M3457 2453 c-8 -14 13 -55 25 -51 21 7 21 36 -1 47 -11 6 -22 8 -24
4z"/>
<path d="M3327 2389 c4 -13 8 -18 11 -10 2 7 -1 18 -6 23 -8 8 -9 4 -5 -13z"/>
<path d="M3642 2398 c2 -6 10 -14 16 -16 7 -2 10 2 6 12 -7 18 -28 22 -22 4z"/>
<path d="M3515 2351 c0 -17 4 -27 12 -24 6 2 14 -9 18 -26 7 -33 25 -33 25 0
0 30 -31 78 -50 79 -3 0 -6 -13 -5 -29z"/>
<path d="M3356 2318 c4 -13 8 -30 9 -40 1 -17 51 -98 61 -98 3 0 3 4 0 8 -2 4
0 14 5 22 7 11 8 6 4 -16 -4 -29 -3 -30 33 -31 32 -1 34 0 13 8 -15 6 -21 14
-17 24 3 8 1 15 -4 15 -6 0 -10 7 -10 15 0 11 -8 14 -30 10 -31 -5 -42 8 -15
19 8 3 15 13 15 22 0 10 -3 14 -7 11 -9 -9 -43 22 -43 40 0 7 -5 13 -11 13 -6
0 -8 -9 -3 -22z"/>
<path d="M3713 2288 c2 -12 9 -24 15 -26 13 -4 15 8 6 32 -9 24 -24 19 -21 -6z"/>
<path d="M3888 2283 c7 -3 16 -2 19 1 4 3 -2 6 -13 5 -11 0 -14 -3 -6 -6z"/>
<path d="M3570 2247 c0 -19 47 -73 56 -64 12 11 -18 58 -33 52 -8 -2 -11 -1
-8 4 3 5 1 12 -5 16 -5 3 -10 0 -10 -8z"/>
<path d="M3900 2251 c0 -5 5 -13 10 -16 6 -3 10 -2 10 4 0 5 -4 13 -10 16 -5
3 -10 2 -10 -4z"/>
<path d="M3720 2233 c1 -12 40 -59 40 -48 0 6 5 3 10 -5 8 -12 10 -9 10 14 0
21 -4 27 -15 22 -9 -3 -15 0 -15 9 0 8 -7 15 -15 15 -8 0 -15 -3 -15 -7z"/>
<path d="M4191 2164 c0 -11 3 -14 6 -6 3 7 2 16 -1 19 -3 4 -6 -2 -5 -13z"/>
<path d="M3782 2149 c2 -7 10 -15 17 -17 8 -3 12 1 9 9 -2 7 -10 15 -17 17 -8
3 -12 -1 -9 -9z"/>
<path d="M4230 2140 c0 -5 5 -10 11 -10 5 0 7 5 4 10 -3 6 -8 10 -11 10 -2 0
-4 -4 -4 -10z"/>
<path d="M3507 2113 c-2 -4 0 -19 6 -33 5 -14 9 -32 8 -41 -1 -9 5 -22 14 -29
8 -7 15 -19 15 -26 0 -8 5 -14 10 -14 6 0 10 -9 10 -21 0 -11 4 -18 10 -14 5
3 7 12 3 20 -4 11 0 14 13 9 15 -5 16 -4 4 4 -8 6 -18 8 -24 5 -5 -4 -7 1 -2
12 4 12 0 25 -14 38 -12 10 -19 25 -16 32 3 8 0 15 -5 17 -6 2 -11 11 -13 20
-3 22 -12 32 -19 21z"/>
<path d="M3980 2091 c0 -5 5 -13 10 -16 6 -3 10 -2 10 4 0 5 -4 13 -10 16 -5
3 -10 2 -10 -4z"/>
<path d="M4520 2028 c0 -10 7 -18 15 -18 8 0 15 8 15 18 0 10 -7 19 -15 19 -8
0 -15 -9 -15 -19z"/>
<path d="M4745 2030 c3 -5 10 -10 16 -10 5 0 9 5 9 10 0 6 -7 10 -16 10 -8 0
-12 -4 -9 -10z"/>
<path d="M4785 2029 c-9 -14 0 -22 30 -25 31 -3 31 0 1 20 -17 10 -27 12 -31
5z"/>
<path d="M3740 1881 c0 -5 5 -13 10 -16 6 -3 10 -2 10 4 0 5 -4 13 -10 16 -5
3 -10 2 -10 -4z"/>
<path d="M4170 1830 c0 -6 7 -10 15 -10 8 0 15 2 15 4 0 2 -7 6 -15 10 -8 3
-15 1 -15 -4z"/>
<path d="M5176 1815 c4 -9 11 -14 16 -13 15 5 11 23 -6 26 -11 2 -14 -2 -10
-13z"/>
<path d="M5230 1810 c0 -5 5 -10 10 -10 6 0 10 5 10 10 0 6 -4 10 -10 10 -5 0
-10 -4 -10 -10z"/>
<path d="M5776 1927 c-31 -40 -32 -46 -7 -44 10 0 17 7 14 13 -2 7 5 15 16 19
12 3 21 11 21 16 0 6 -5 7 -12 3 -8 -5 -9 -2 -5 9 10 26 1 20 -27 -16z"/>
<path d="M5710 1920 c0 -5 5 -10 11 -10 5 0 7 5 4 10 -3 6 -8 10 -11 10 -2 0
-4 -4 -4 -10z"/>
<path d="M5800 1849 c0 -5 5 -7 10 -4 6 3 10 8 10 11 0 2 -4 4 -10 4 -5 0 -10
-5 -10 -11z"/>
</g>
</svg>
